<svg width="257" height="47" viewBox="0 0 257 47" fill="none" xmlns="http://www.w3.org/2000/svg">
<circle cx="13.8287" cy="41.6605" r="2.83947" fill="#FF4B33"/>
<path d="M4 29.429V12.1737C4 11.4499 4.58674 10.8632 5.31053 10.8632H18.6342C19.358 10.8632 19.9447 10.2764 19.9447 9.55264V5.18421C19.9447 4.46043 20.5315 3.87369 21.2553 3.87369H33.05" stroke="black" stroke-width="6.11579" stroke-linecap="round"/>
<path d="M48.9945 24.8421V40.1316C48.9945 40.8554 48.4078 41.4421 47.684 41.4421H32.3945" stroke="black" stroke-width="6.11579" stroke-linecap="round"/>
<path d="M236.4 3.87369L251.689 3.87369C252.413 3.87369 253 4.46043 253 5.18421L253 20.4737" stroke="#FF4B33" stroke-width="6.11579" stroke-linecap="round"/>
<path d="M28.4639 14.7947C34.0127 14.795 38.5107 19.2937 38.5107 24.8426C38.5105 30.3912 34.0125 34.8892 28.4639 34.8895C22.915 34.8895 18.4163 30.3914 18.416 24.8426C18.416 19.2936 22.9149 14.7947 28.4639 14.7947ZM28.4629 21.3475C26.5329 21.3476 24.9688 22.9126 24.9688 24.8426C24.969 26.7724 26.5331 28.3366 28.4629 28.3367C30.3928 28.3367 31.9577 26.7725 31.958 24.8426C31.958 22.9125 30.393 21.3475 28.4629 21.3475Z" fill="black"/>
<path d="M74.1459 30.2272C73.1994 30.2272 72.3476 30.1514 71.5904 30C70.8521 29.8675 70.218 29.6877 69.688 29.4605C69.1579 29.2333 68.7225 29.0156 68.3818 28.8074C68.1168 28.6371 67.8991 28.4761 67.7287 28.3247C67.5584 28.1543 67.4732 27.9556 67.4732 27.7284C67.4732 27.5013 67.5016 27.2457 67.5584 26.9618C67.6341 26.6589 67.7287 26.3655 67.8423 26.0815C67.9748 25.7976 68.1073 25.561 68.2398 25.3717C68.3913 25.1824 68.5427 25.0877 68.6941 25.0877C68.8645 25.0877 69.1958 25.2108 69.688 25.4568C70.1991 25.684 70.7954 25.9206 71.4768 26.1667C72.1772 26.3939 72.906 26.5074 73.6632 26.5074C74.2122 26.5074 74.657 26.4412 74.9978 26.3087C75.3574 26.1762 75.6225 25.9679 75.7928 25.684C75.9821 25.4001 76.0768 25.0404 76.0768 24.605C76.0768 24.1507 75.9443 23.7721 75.6792 23.4692C75.4332 23.1663 75.1019 22.9013 74.6854 22.6742C74.269 22.4281 73.7957 22.2104 73.2657 22.0211C72.7546 21.8129 72.234 21.5857 71.704 21.3396C71.2118 21.1124 70.7386 20.8474 70.2842 20.5446C69.8299 20.2417 69.4135 19.8725 69.0349 19.4372C68.6752 19.0018 68.3913 18.4717 68.183 17.8471C67.9748 17.2224 67.8707 16.4841 67.8707 15.6323C67.8707 14.6101 68.06 13.7393 68.4386 13.0199C68.8361 12.2817 69.3567 11.6854 70.0003 11.2311C70.6439 10.7768 71.3632 10.4455 72.1583 10.2373C72.9534 10.0101 73.7673 9.89653 74.6002 9.89653C75.206 9.89653 75.7928 9.94385 76.3607 10.0385C76.9475 10.1331 77.4776 10.2657 77.9508 10.436C78.4241 10.5875 78.8027 10.7673 79.0866 10.9755C79.2948 11.108 79.4652 11.25 79.5977 11.4014C79.7302 11.5529 79.7965 11.7043 79.7965 11.8558C79.7965 12.0451 79.7586 12.2911 79.6829 12.594C79.6261 12.878 79.5409 13.1619 79.4274 13.4459C79.3327 13.7298 79.2097 13.9664 79.0582 14.1557C78.9068 14.345 78.7459 14.4397 78.5755 14.4397C78.3484 14.4397 78.0455 14.3734 77.6669 14.2409C77.3072 14.0895 76.8718 13.9475 76.3607 13.815C75.8685 13.6636 75.3101 13.5878 74.6854 13.5878C74.1554 13.5878 73.7105 13.6541 73.3509 13.7866C72.9912 13.9191 72.7167 14.1179 72.5274 14.3829C72.3571 14.629 72.2719 14.9508 72.2719 15.3483C72.2719 15.8216 72.4139 16.2191 72.6978 16.5409C72.9817 16.8438 73.3603 17.1088 73.8336 17.3359C74.3258 17.5442 74.8463 17.7713 75.3953 18.0174C75.9821 18.2635 76.5784 18.538 77.1842 18.8409C77.7899 19.1437 78.3484 19.5223 78.8595 19.9767C79.3706 20.412 79.7776 20.9705 80.0804 21.6519C80.4022 22.3145 80.5631 23.1474 80.5631 24.1507C80.5631 25.2675 80.3738 26.214 79.9952 26.9902C79.6356 27.7663 79.1434 28.391 78.5187 28.8642C77.894 29.3375 77.2031 29.6877 76.4459 29.9148C75.6887 30.123 74.9221 30.2272 74.1459 30.2272ZM89.7062 30.2272C87.1318 30.2272 85.2483 29.5457 84.0557 28.1827C82.882 26.8009 82.2952 24.9647 82.2952 22.6742C82.2952 20.8001 82.5886 19.2952 83.1755 18.1594C83.7623 17.0236 84.5763 16.2002 85.6174 15.6891C86.6585 15.1779 87.8511 14.9224 89.1951 14.9224C90.6906 14.9224 91.8832 15.2631 92.7729 15.9446C93.6626 16.6071 94.3062 17.4874 94.7037 18.5853C95.1202 19.6643 95.3284 20.838 95.3284 22.1063C95.3284 22.3524 95.2338 22.6174 95.0445 22.9013C94.8741 23.1853 94.6659 23.4314 94.4198 23.6396C94.1737 23.8289 93.9465 23.9235 93.7383 23.9235H86.6112C86.6491 25.0593 86.9709 25.8449 87.5766 26.2803C88.2013 26.6967 88.9774 26.905 89.905 26.905C90.5486 26.905 91.1165 26.8198 91.6087 26.6494C92.1198 26.4601 92.5457 26.2803 92.8865 26.1099C93.2461 25.9396 93.5206 25.8544 93.7099 25.8544C93.8992 25.8544 94.0885 25.9963 94.2778 26.2803C94.4671 26.5642 94.628 26.886 94.7605 27.2457C94.893 27.5864 94.9593 27.8515 94.9593 28.0408C94.9593 28.3247 94.77 28.5992 94.3914 28.8642C94.0317 29.1292 93.5679 29.3659 93 29.5741C92.4321 29.7823 91.8548 29.9432 91.268 30.0568C90.6811 30.1704 90.1606 30.2272 89.7062 30.2272ZM86.5544 21.1124H91.3247C91.3247 20.166 91.1354 19.4561 90.7569 18.9828C90.3783 18.4907 89.8009 18.2446 89.0248 18.2446C88.684 18.2446 88.3244 18.3108 87.9458 18.4433C87.5672 18.5759 87.2454 18.8503 86.9804 19.2668C86.7153 19.6643 86.5734 20.2795 86.5544 21.1124ZM99.7882 30.0568C99.1824 30.0568 98.7375 29.9811 98.4536 29.8296C98.1886 29.6593 98.0561 29.4226 98.0561 29.1198V20.0902C98.0561 19.2573 98.0277 18.5948 97.9709 18.1026C97.933 17.5915 97.8857 17.194 97.8289 16.91C97.7911 16.6261 97.7721 16.38 97.7721 16.1718C97.7721 15.9635 97.9046 15.7932 98.1697 15.6607C98.4536 15.5281 98.7849 15.4335 99.1635 15.3767C99.561 15.301 99.9301 15.2537 100.271 15.2347C100.631 15.1969 100.886 15.1779 101.038 15.1779C101.265 15.1779 101.435 15.2347 101.549 15.3483C101.662 15.443 101.757 15.6228 101.833 15.8878C101.927 16.1528 102.022 16.5504 102.117 17.0804C102.4 16.7207 102.751 16.38 103.167 16.0582C103.603 15.7174 104.085 15.443 104.615 15.2347C105.164 15.0265 105.742 14.9224 106.347 14.9224C107.313 14.9224 108.108 15.0928 108.732 15.4335C109.376 15.7553 109.849 16.2569 110.152 16.9384C110.455 17.601 110.607 18.4623 110.607 19.5223V29.1198C110.607 29.4226 110.465 29.6593 110.181 29.8296C109.916 29.9811 109.48 30.0568 108.874 30.0568H108.079C107.474 30.0568 107.029 29.9811 106.745 29.8296C106.48 29.6593 106.347 29.4226 106.347 29.1198V20.147C106.347 19.5981 106.224 19.1721 105.978 18.8693C105.732 18.5475 105.306 18.3866 104.7 18.3866C104.398 18.3866 104.085 18.4623 103.763 18.6137C103.461 18.7462 103.177 18.9355 102.912 19.1816C102.665 19.4277 102.467 19.7116 102.315 20.0334V29.1198C102.315 29.4226 102.173 29.6593 101.889 29.8296C101.624 29.9811 101.189 30.0568 100.583 30.0568H99.7882ZM117.723 30.2272C117.193 30.2272 116.654 30.1798 116.105 30.0852C115.556 30.0095 115.045 29.8864 114.572 29.7161C114.098 29.5457 113.72 29.3469 113.436 29.1198C113.152 28.8737 113.01 28.5992 113.01 28.2963C113.01 28.0502 113.095 27.7568 113.265 27.4161C113.436 27.0753 113.635 26.7725 113.862 26.5074C114.108 26.2424 114.326 26.1099 114.515 26.1099C114.666 26.1099 114.865 26.1762 115.111 26.3087C115.376 26.4412 115.698 26.5737 116.077 26.7062C116.455 26.8387 116.891 26.905 117.383 26.905C117.951 26.905 118.377 26.8009 118.66 26.5926C118.963 26.3844 119.115 26.091 119.115 25.7124C119.115 25.4284 119.011 25.1918 118.802 25.0025C118.613 24.8132 118.348 24.6429 118.007 24.4914C117.667 24.3211 117.269 24.1412 116.815 23.9519C116.474 23.8005 116.095 23.6206 115.679 23.4124C115.281 23.2042 114.903 22.9392 114.543 22.6174C114.202 22.2956 113.919 21.8886 113.691 21.3964C113.464 20.9042 113.351 20.2985 113.351 19.5791C113.351 18.5948 113.559 17.7619 113.975 17.0804C114.411 16.38 115.016 15.85 115.793 15.4903C116.569 15.1117 117.477 14.9224 118.518 14.9224C118.935 14.9224 119.38 14.9508 119.853 15.0076C120.345 15.0644 120.809 15.159 121.244 15.2915C121.699 15.424 122.068 15.5944 122.352 15.8026C122.636 16.0109 122.778 16.2664 122.778 16.5693C122.778 16.7775 122.711 17.0615 122.579 17.4211C122.446 17.7808 122.286 18.1026 122.096 18.3866C121.926 18.6705 121.746 18.8125 121.557 18.8125C121.405 18.8125 121.121 18.7178 120.705 18.5285C120.288 18.3203 119.73 18.2162 119.03 18.2162C118.556 18.2162 118.187 18.3014 117.922 18.4717C117.657 18.6232 117.525 18.8882 117.525 19.2668C117.525 19.5697 117.619 19.8252 117.809 20.0334C118.017 20.2227 118.301 20.3931 118.66 20.5446C119.02 20.696 119.427 20.8569 119.881 21.0273C120.222 21.1598 120.591 21.3301 120.989 21.5384C121.386 21.7277 121.755 21.9832 122.096 22.305C122.456 22.6268 122.74 23.0433 122.948 23.5544C123.175 24.0466 123.289 24.6523 123.289 25.3717C123.289 26.3371 123.071 27.1889 122.636 27.9272C122.2 28.6465 121.566 29.2144 120.733 29.6309C119.919 30.0284 118.916 30.2272 117.723 30.2272ZM132.548 30.2272C129.973 30.2272 128.09 29.5457 126.897 28.1827C125.724 26.8009 125.137 24.9647 125.137 22.6742C125.137 20.8001 125.43 19.2952 126.017 18.1594C126.604 17.0236 127.418 16.2002 128.459 15.6891C129.5 15.1779 130.693 14.9224 132.037 14.9224C133.532 14.9224 134.725 15.2631 135.615 15.9446C136.504 16.6071 137.148 17.4874 137.545 18.5853C137.962 19.6643 138.17 20.838 138.17 22.1063C138.17 22.3524 138.075 22.6174 137.886 22.9013C137.716 23.1853 137.508 23.4314 137.261 23.6396C137.015 23.8289 136.788 23.9235 136.58 23.9235H129.453C129.491 25.0593 129.813 25.8449 130.418 26.2803C131.043 26.6967 131.819 26.905 132.747 26.905C133.39 26.905 133.958 26.8198 134.45 26.6494C134.961 26.4601 135.387 26.2803 135.728 26.1099C136.088 25.9396 136.362 25.8544 136.552 25.8544C136.741 25.8544 136.93 25.9963 137.119 26.2803C137.309 26.5642 137.47 26.886 137.602 27.2457C137.735 27.5864 137.801 27.8515 137.801 28.0408C137.801 28.3247 137.612 28.5992 137.233 28.8642C136.873 29.1292 136.41 29.3659 135.842 29.5741C135.274 29.7823 134.696 29.9432 134.11 30.0568C133.523 30.1704 133.002 30.2272 132.548 30.2272ZM129.396 21.1124H134.166C134.166 20.166 133.977 19.4561 133.599 18.9828C133.22 18.4907 132.643 18.2446 131.866 18.2446C131.526 18.2446 131.166 18.3108 130.787 18.4433C130.409 18.5759 130.087 18.8503 129.822 19.2668C129.557 19.6643 129.415 20.2795 129.396 21.1124ZM154.165 30.2272C151.912 30.2272 150.199 29.5646 149.025 28.2395C147.852 26.9144 147.265 25.0215 147.265 22.5606C147.265 20.0808 147.852 18.1878 149.025 16.8816C150.199 15.5755 151.912 14.9224 154.165 14.9224C156.417 14.9224 158.121 15.5755 159.276 16.8816C160.449 18.1878 161.036 20.0808 161.036 22.5606C161.036 25.0215 160.449 26.9144 159.276 28.2395C158.121 29.5646 156.417 30.2272 154.165 30.2272ZM154.165 26.905C155.054 26.905 155.698 26.5358 156.096 25.7976C156.512 25.0593 156.72 23.9803 156.72 22.5606C156.72 21.1408 156.512 20.0713 156.096 19.352C155.698 18.6137 155.054 18.2446 154.165 18.2446C153.275 18.2446 152.622 18.6137 152.206 19.352C151.789 20.0713 151.581 21.1408 151.581 22.5606C151.581 23.9803 151.789 25.0593 152.206 25.7976C152.622 26.5358 153.275 26.905 154.165 26.905ZM166.214 30.0568C165.608 30.0568 165.163 29.9811 164.879 29.8296C164.614 29.6593 164.482 29.4226 164.482 29.1198V18.4717H163.573C163.005 18.4717 162.721 17.9985 162.721 17.052V16.5693C162.721 15.6228 163.005 15.1496 163.573 15.1496H164.482V12.6792C164.482 11.7327 164.633 10.9471 164.936 10.3224C165.239 9.69776 165.693 9.22452 166.299 8.90271C166.924 8.5809 167.69 8.42 168.599 8.42C169.072 8.42 169.545 8.46732 170.019 8.56197C170.492 8.65662 170.889 8.77966 171.211 8.9311C171.533 9.06361 171.694 9.22452 171.694 9.41381C171.694 9.56525 171.675 9.78295 171.637 10.0669C171.599 10.3508 171.542 10.6443 171.467 10.9471C171.41 11.25 171.334 11.515 171.24 11.7422C171.145 11.9504 171.041 12.0545 170.927 12.0545C170.795 12.0545 170.634 12.0167 170.444 11.9409C170.274 11.8463 170.028 11.799 169.706 11.799C169.347 11.799 169.091 11.8842 168.94 12.0545C168.807 12.2249 168.741 12.5278 168.741 12.9632V15.1496H170.473C171.041 15.1496 171.325 15.6228 171.325 16.5693V17.052C171.325 17.9985 171.041 18.4717 170.473 18.4717H168.741V29.1198C168.741 29.4226 168.599 29.6593 168.315 29.8296C168.05 29.9811 167.614 30.0568 167.009 30.0568H166.214ZM181.275 30C180.518 30 180.139 29.6214 180.139 28.8642V11.0039C180.139 10.701 180.272 10.4739 180.537 10.3224C180.821 10.1521 181.256 10.0669 181.843 10.0669H182.837C183.443 10.0669 183.878 10.1521 184.143 10.3224C184.408 10.4739 184.54 10.701 184.54 11.0039V26.2803H190.645C191.213 26.2803 191.497 26.7535 191.497 27.7V28.5803C191.497 29.5268 191.213 30 190.645 30H181.275ZM200.651 30.2272C198.076 30.2272 196.193 29.5457 195 28.1827C193.827 26.8009 193.24 24.9647 193.24 22.6742C193.24 20.8001 193.533 19.2952 194.12 18.1594C194.707 17.0236 195.521 16.2002 196.562 15.6891C197.603 15.1779 198.796 14.9224 200.14 14.9224C201.635 14.9224 202.828 15.2631 203.718 15.9446C204.607 16.6071 205.251 17.4874 205.648 18.5853C206.065 19.6643 206.273 20.838 206.273 22.1063C206.273 22.3524 206.178 22.6174 205.989 22.9013C205.819 23.1853 205.611 23.4314 205.364 23.6396C205.118 23.8289 204.891 23.9235 204.683 23.9235H197.556C197.594 25.0593 197.916 25.8449 198.521 26.2803C199.146 26.6967 199.922 26.905 200.85 26.905C201.493 26.905 202.061 26.8198 202.553 26.6494C203.064 26.4601 203.49 26.2803 203.831 26.1099C204.191 25.9396 204.465 25.8544 204.655 25.8544C204.844 25.8544 205.033 25.9963 205.222 26.2803C205.412 26.5642 205.573 26.886 205.705 27.2457C205.838 27.5864 205.904 27.8515 205.904 28.0408C205.904 28.3247 205.715 28.5992 205.336 28.8642C204.976 29.1292 204.513 29.3659 203.945 29.5741C203.377 29.7823 202.799 29.9432 202.213 30.0568C201.626 30.1704 201.105 30.2272 200.651 30.2272ZM197.499 21.1124H202.269C202.269 20.166 202.08 19.4561 201.702 18.9828C201.323 18.4907 200.746 18.2446 199.969 18.2446C199.629 18.2446 199.269 18.3108 198.89 18.4433C198.512 18.5759 198.19 18.8503 197.925 19.2668C197.66 19.6643 197.518 20.2795 197.499 21.1124ZM210.733 30.0568C210.127 30.0568 209.682 29.9811 209.398 29.8296C209.133 29.6593 209.001 29.4226 209.001 29.1198V20.0902C209.001 19.2573 208.972 18.5948 208.916 18.1026C208.878 17.5915 208.83 17.194 208.774 16.91C208.736 16.6261 208.717 16.38 208.717 16.1718C208.717 15.9635 208.849 15.7932 209.114 15.6607C209.398 15.5281 209.73 15.4335 210.108 15.3767C210.506 15.301 210.875 15.2537 211.216 15.2347C211.575 15.1969 211.831 15.1779 211.982 15.1779C212.209 15.1779 212.38 15.2347 212.493 15.3483C212.607 15.443 212.702 15.6228 212.777 15.8878C212.872 16.1528 212.967 16.5504 213.061 17.0804C213.345 16.7207 213.695 16.38 214.112 16.0582C214.547 15.7174 215.03 15.443 215.56 15.2347C216.109 15.0265 216.686 14.9224 217.292 14.9224C218.257 14.9224 219.052 15.0928 219.677 15.4335C220.321 15.7553 220.794 16.2569 221.097 16.9384C221.4 17.601 221.551 18.4623 221.551 19.5223V29.1198C221.551 29.4226 221.409 29.6593 221.125 29.8296C220.86 29.9811 220.425 30.0568 219.819 30.0568H219.024C218.418 30.0568 217.973 29.9811 217.69 29.8296C217.425 29.6593 217.292 29.4226 217.292 29.1198V20.147C217.292 19.5981 217.169 19.1721 216.923 18.8693C216.677 18.5475 216.251 18.3866 215.645 18.3866C215.342 18.3866 215.03 18.4623 214.708 18.6137C214.405 18.7462 214.121 18.9355 213.856 19.1816C213.61 19.4277 213.411 19.7116 213.26 20.0334V29.1198C213.26 29.4226 213.118 29.6593 212.834 29.8296C212.569 29.9811 212.134 30.0568 211.528 30.0568H210.733ZM228.668 30.2272C228.138 30.2272 227.599 30.1798 227.05 30.0852C226.501 30.0095 225.99 29.8864 225.516 29.7161C225.043 29.5457 224.664 29.3469 224.38 29.1198C224.097 28.8737 223.955 28.5992 223.955 28.2963C223.955 28.0502 224.04 27.7568 224.21 27.4161C224.38 27.0753 224.579 26.7725 224.806 26.5074C225.052 26.2424 225.27 26.1099 225.459 26.1099C225.611 26.1099 225.81 26.1762 226.056 26.3087C226.321 26.4412 226.643 26.5737 227.021 26.7062C227.4 26.8387 227.835 26.905 228.327 26.905C228.895 26.905 229.321 26.8009 229.605 26.5926C229.908 26.3844 230.059 26.091 230.059 25.7124C230.059 25.4284 229.955 25.1918 229.747 25.0025C229.558 24.8132 229.293 24.6429 228.952 24.4914C228.611 24.3211 228.214 24.1412 227.759 23.9519C227.419 23.8005 227.04 23.6206 226.624 23.4124C226.226 23.2042 225.848 22.9392 225.488 22.6174C225.147 22.2956 224.863 21.8886 224.636 21.3964C224.409 20.9042 224.295 20.2985 224.295 19.5791C224.295 18.5948 224.504 17.7619 224.92 17.0804C225.355 16.38 225.961 15.85 226.737 15.4903C227.513 15.1117 228.422 14.9224 229.463 14.9224C229.88 14.9224 230.324 14.9508 230.798 15.0076C231.29 15.0644 231.754 15.159 232.189 15.2915C232.643 15.424 233.012 15.5944 233.296 15.8026C233.58 16.0109 233.722 16.2664 233.722 16.5693C233.722 16.7775 233.656 17.0615 233.524 17.4211C233.391 17.7808 233.23 18.1026 233.041 18.3866C232.871 18.6705 232.691 18.8125 232.501 18.8125C232.35 18.8125 232.066 18.7178 231.65 18.5285C231.233 18.3203 230.675 18.2162 229.974 18.2162C229.501 18.2162 229.132 18.3014 228.867 18.4717C228.602 18.6232 228.469 18.8882 228.469 19.2668C228.469 19.5697 228.564 19.8252 228.753 20.0334C228.962 20.2227 229.245 20.3931 229.605 20.5446C229.965 20.696 230.372 20.8569 230.826 21.0273C231.167 21.1598 231.536 21.3301 231.933 21.5384C232.331 21.7277 232.7 21.9832 233.041 22.305C233.401 22.6268 233.684 23.0433 233.893 23.5544C234.12 24.0466 234.233 24.6523 234.233 25.3717C234.233 26.3371 234.016 27.1889 233.58 27.9272C233.145 28.6465 232.511 29.2144 231.678 29.6309C230.864 30.0284 229.861 30.2272 228.668 30.2272Z" fill="black"/>
<path d="M120.216 44.3455C120.075 44.3455 119.972 44.3263 119.908 44.2879C119.851 44.2494 119.822 44.1982 119.822 44.1341V37.8873C119.822 37.6951 119.921 37.5989 120.12 37.5989H122.013C122.737 37.5989 123.282 37.7559 123.647 38.0699C124.012 38.3838 124.195 38.8547 124.195 39.4826C124.195 39.7645 124.143 40.0176 124.041 40.2418C123.945 40.4661 123.804 40.6487 123.618 40.7896C123.432 40.9306 123.211 41.0235 122.955 41.0683V41.1068C123.154 41.1645 123.317 41.2862 123.445 41.472C123.573 41.6514 123.692 41.882 123.801 42.1639L124.55 44.0572C124.563 44.0829 124.569 44.1085 124.569 44.1341C124.576 44.1597 124.579 44.179 124.579 44.1918C124.579 44.2366 124.547 44.2751 124.483 44.3071C124.419 44.3327 124.316 44.3455 124.175 44.3455H124.079C123.983 44.3455 123.9 44.3327 123.829 44.3071C123.759 44.2751 123.714 44.2366 123.695 44.1918L122.897 42.1351C122.827 41.9429 122.74 41.7923 122.638 41.6834C122.542 41.5681 122.42 41.488 122.273 41.4432C122.125 41.3919 121.943 41.3663 121.725 41.3663H120.687V44.1341C120.687 44.1982 120.658 44.2494 120.6 44.2879C120.543 44.3263 120.44 44.3455 120.293 44.3455H120.216ZM120.687 40.6359H122.013C122.474 40.6359 122.808 40.5494 123.013 40.3764C123.218 40.2034 123.32 39.9215 123.32 39.5307C123.32 39.1078 123.218 38.8035 123.013 38.6177C122.808 38.4255 122.474 38.3293 122.013 38.3293H120.687V40.6359ZM127.571 44.384C126.835 44.384 126.268 44.1918 125.87 43.8073C125.479 43.4229 125.284 42.7662 125.284 41.8372C125.284 41.2798 125.371 40.8089 125.544 40.4244C125.717 40.04 125.97 39.7485 126.303 39.5499C126.642 39.3449 127.052 39.2423 127.533 39.2423C127.969 39.2423 128.331 39.3385 128.619 39.5307C128.914 39.7165 129.131 39.9952 129.272 40.3668C129.42 40.7384 129.493 41.1933 129.493 41.7315C129.493 41.7891 129.477 41.85 129.445 41.9141C129.413 41.9781 129.372 42.0326 129.32 42.0775C129.269 42.1223 129.215 42.1447 129.157 42.1447H126.13C126.143 42.6765 126.268 43.0673 126.505 43.3172C126.742 43.5671 127.104 43.692 127.591 43.692C127.898 43.692 128.158 43.6568 128.369 43.5863C128.587 43.5158 128.757 43.4454 128.878 43.3749C129.007 43.3044 129.087 43.2692 129.119 43.2692C129.163 43.2692 129.202 43.298 129.234 43.3557C129.272 43.4069 129.304 43.4678 129.33 43.5383C129.356 43.6087 129.369 43.6696 129.369 43.7209C129.369 43.7785 129.32 43.8458 129.224 43.9227C129.135 43.9932 129.007 44.0668 128.84 44.1437C128.68 44.2142 128.491 44.2719 128.273 44.3167C128.055 44.3616 127.821 44.384 127.571 44.384ZM126.13 41.4528H128.667C128.667 40.9466 128.561 40.5686 128.35 40.3187C128.138 40.0624 127.837 39.9343 127.446 39.9343C127.164 39.9343 126.927 39.9984 126.735 40.1265C126.543 40.2483 126.396 40.4212 126.293 40.6455C126.191 40.8697 126.136 41.1388 126.13 41.4528ZM132.05 44.384C131.583 44.384 131.192 44.2687 130.878 44.038C130.564 43.8009 130.407 43.4357 130.407 42.9424C130.407 42.6156 130.461 42.3401 130.57 42.1159C130.679 41.8917 130.856 41.7123 131.099 41.5777C131.349 41.4432 131.676 41.3471 132.079 41.2894C132.489 41.2253 132.989 41.1933 133.579 41.1933V40.7416C133.579 40.5942 133.546 40.4597 133.482 40.3379C133.418 40.2162 133.309 40.1201 133.156 40.0496C133.008 39.9727 132.803 39.9343 132.541 39.9343C132.252 39.9343 131.996 39.9663 131.772 40.0304C131.554 40.0945 131.374 40.1586 131.234 40.2226C131.099 40.2867 131.009 40.3187 130.964 40.3187C130.932 40.3187 130.9 40.3027 130.868 40.2707C130.843 40.2386 130.817 40.197 130.791 40.1457C130.766 40.0881 130.743 40.0304 130.724 39.9727C130.711 39.9151 130.705 39.8638 130.705 39.819C130.705 39.7677 130.759 39.7101 130.868 39.646C130.977 39.5819 131.121 39.5211 131.301 39.4634C131.487 39.3993 131.688 39.3481 131.906 39.3096C132.131 39.2648 132.355 39.2423 132.579 39.2423C132.867 39.2423 133.124 39.2776 133.348 39.3481C133.579 39.4121 133.771 39.5114 133.924 39.646C134.078 39.7741 134.197 39.9311 134.28 40.1169C134.363 40.3027 134.405 40.5141 134.405 40.7512V42.8847C134.405 43.1474 134.411 43.3621 134.424 43.5286C134.443 43.6952 134.459 43.8266 134.472 43.9227C134.492 44.0124 134.501 44.0796 134.501 44.1245C134.501 44.1565 134.482 44.1854 134.443 44.211C134.405 44.2366 134.357 44.259 134.299 44.2783C134.242 44.2911 134.181 44.3039 134.117 44.3167C134.053 44.3231 133.995 44.3263 133.944 44.3263C133.886 44.3263 133.841 44.3071 133.809 44.2687C133.777 44.2238 133.748 44.1533 133.723 44.0572C133.697 43.9547 133.668 43.8234 133.636 43.6632C133.521 43.7977 133.383 43.9195 133.223 44.0284C133.069 44.1373 132.893 44.2238 132.694 44.2879C132.502 44.3519 132.287 44.384 132.05 44.384ZM132.089 43.6824C132.32 43.6824 132.521 43.6504 132.694 43.5863C132.874 43.5222 133.034 43.4421 133.175 43.346C133.322 43.2435 133.457 43.1346 133.579 43.0193V41.8852C133.104 41.8852 132.717 41.9045 132.416 41.9429C132.115 41.9749 131.881 42.0294 131.714 42.1063C131.547 42.1832 131.432 42.2889 131.368 42.4234C131.304 42.5516 131.272 42.7085 131.272 42.8943C131.272 43.1506 131.339 43.346 131.474 43.4806C131.615 43.6151 131.82 43.6824 132.089 43.6824ZM137.114 44.384C136.858 44.384 136.644 44.3359 136.471 44.2398C136.304 44.1437 136.176 44.0028 136.086 43.817C136.003 43.6247 135.961 43.3909 135.961 43.1154V37.3106C135.961 37.2402 135.987 37.1889 136.038 37.1569C136.096 37.1184 136.195 37.0992 136.336 37.0992H136.413C136.554 37.0992 136.65 37.1184 136.701 37.1569C136.759 37.1889 136.788 37.2402 136.788 37.3106V43.1154C136.788 43.3332 136.82 43.4806 136.884 43.5575C136.954 43.6344 137.073 43.6728 137.239 43.6728C137.387 43.6728 137.492 43.6568 137.557 43.6247C137.621 43.5927 137.675 43.5767 137.72 43.5767C137.752 43.5767 137.778 43.5991 137.797 43.644C137.822 43.6824 137.838 43.7305 137.845 43.7881C137.858 43.8458 137.864 43.9003 137.864 43.9515C137.87 44.0028 137.874 44.038 137.874 44.0572C137.874 44.1213 137.829 44.179 137.739 44.2302C137.656 44.2815 137.553 44.3199 137.432 44.3455C137.316 44.3712 137.211 44.384 137.114 44.384ZM140.217 44.384C139.961 44.384 139.747 44.3359 139.574 44.2398C139.407 44.1437 139.279 44.0028 139.189 43.817C139.106 43.6247 139.064 43.3909 139.064 43.1154V39.992H138.584C138.456 39.992 138.391 39.8959 138.391 39.7037V39.5883C138.391 39.3961 138.456 39.3 138.584 39.3H139.064L139.179 38.2909C139.192 38.2204 139.221 38.1692 139.266 38.1371C139.317 38.0987 139.388 38.0795 139.477 38.0795H139.554C139.682 38.0795 139.769 38.0987 139.814 38.1371C139.865 38.1692 139.891 38.2204 139.891 38.2909V39.3H140.708C140.836 39.3 140.9 39.3961 140.9 39.5883V39.7037C140.9 39.8959 140.836 39.992 140.708 39.992H139.891V43.1154C139.891 43.3204 139.923 43.4646 139.987 43.5479C140.057 43.6312 140.176 43.6728 140.342 43.6728C140.49 43.6728 140.595 43.6568 140.66 43.6247C140.724 43.5927 140.778 43.5767 140.823 43.5767C140.855 43.5767 140.881 43.5991 140.9 43.644C140.925 43.6824 140.941 43.7305 140.948 43.7881C140.961 43.8458 140.967 43.9003 140.967 43.9515C140.973 44.0028 140.977 44.038 140.977 44.0572C140.977 44.1213 140.932 44.179 140.842 44.2302C140.759 44.2815 140.656 44.3199 140.535 44.3455C140.419 44.3712 140.314 44.384 140.217 44.384ZM142.724 46.3253C142.621 46.3253 142.541 46.3093 142.484 46.2773C142.432 46.2516 142.407 46.2164 142.407 46.1715C142.407 46.1587 142.407 46.1427 142.407 46.1235C142.413 46.1107 142.429 46.0722 142.455 46.0082L143.397 43.7497L143.32 44.3744L141.542 39.5691C141.535 39.5563 141.529 39.5371 141.523 39.5114C141.516 39.4858 141.513 39.4634 141.513 39.4442C141.513 39.3929 141.545 39.3545 141.609 39.3288C141.679 39.2968 141.785 39.2808 141.926 39.2808H141.974C142.07 39.2808 142.154 39.2936 142.224 39.3192C142.295 39.3385 142.339 39.3769 142.359 39.4346L143.637 43.1827H143.675L144.992 39.4346C145.011 39.3769 145.056 39.3385 145.126 39.3192C145.197 39.2936 145.283 39.2808 145.386 39.2808H145.415C145.543 39.2808 145.633 39.2968 145.684 39.3288C145.742 39.3545 145.77 39.3929 145.77 39.4442C145.77 39.4634 145.767 39.4826 145.761 39.5018C145.761 39.5211 145.754 39.5467 145.742 39.5787L143.252 46.1235C143.227 46.194 143.172 46.2452 143.089 46.2773C143.012 46.3093 142.916 46.3253 142.801 46.3253H142.724ZM149.573 44.3455C149.432 44.3455 149.33 44.3263 149.266 44.2879C149.208 44.2494 149.179 44.1982 149.179 44.1341V37.7912C149.179 37.7207 149.208 37.6694 149.266 37.6374C149.33 37.5989 149.432 37.5797 149.573 37.5797H149.909C150.057 37.5797 150.169 37.5957 150.246 37.6278C150.329 37.6534 150.384 37.6951 150.409 37.7527L152.062 40.9722C152.107 41.0555 152.152 41.1516 152.197 41.2606C152.248 41.3695 152.286 41.4752 152.312 41.5777C152.344 41.4688 152.389 41.3567 152.447 41.2413C152.511 41.1196 152.565 41.0203 152.61 40.9434L154.225 37.7527C154.257 37.6951 154.311 37.6534 154.388 37.6278C154.465 37.5957 154.574 37.5797 154.715 37.5797H155.022C155.17 37.5797 155.272 37.5989 155.33 37.6374C155.387 37.6694 155.416 37.7207 155.416 37.7912V44.1341C155.416 44.1982 155.387 44.2494 155.33 44.2879C155.272 44.3263 155.17 44.3455 155.022 44.3455H154.945C154.804 44.3455 154.702 44.3263 154.638 44.2879C154.58 44.2494 154.551 44.1982 154.551 44.1341V39.5114C154.551 39.4217 154.551 39.332 154.551 39.2423C154.551 39.1526 154.555 39.0662 154.561 38.9829L154.522 38.9733C154.484 39.0501 154.446 39.1238 154.407 39.1943C154.375 39.2648 154.34 39.3353 154.301 39.4057L152.85 42.2504C152.805 42.3337 152.751 42.3882 152.687 42.4138C152.629 42.4395 152.536 42.4523 152.408 42.4523H152.216C152.094 42.4523 152.001 42.4395 151.937 42.4138C151.88 42.3882 151.825 42.3337 151.774 42.2504L150.294 39.3481C150.255 39.2776 150.217 39.2071 150.179 39.1366C150.146 39.0662 150.111 38.9925 150.073 38.9156L150.034 38.9252C150.041 39.0085 150.044 39.095 150.044 39.1847C150.044 39.2744 150.044 39.3641 150.044 39.4538V44.1341C150.044 44.1982 150.015 44.2494 149.957 44.2879C149.9 44.3263 149.797 44.3455 149.65 44.3455H149.573ZM159.162 44.384C158.425 44.384 157.858 44.1918 157.461 43.8073C157.07 43.4229 156.875 42.7662 156.875 41.8372C156.875 41.2798 156.961 40.8089 157.134 40.4244C157.307 40.04 157.56 39.7485 157.894 39.5499C158.233 39.3449 158.643 39.2423 159.124 39.2423C159.559 39.2423 159.921 39.3385 160.21 39.5307C160.504 39.7165 160.722 39.9952 160.863 40.3668C161.011 40.7384 161.084 41.1933 161.084 41.7315C161.084 41.7891 161.068 41.85 161.036 41.9141C161.004 41.9781 160.963 42.0326 160.911 42.0775C160.86 42.1223 160.806 42.1447 160.748 42.1447H157.721C157.733 42.6765 157.858 43.0673 158.095 43.3172C158.332 43.5671 158.694 43.692 159.181 43.692C159.489 43.692 159.748 43.6568 159.96 43.5863C160.178 43.5158 160.347 43.4454 160.469 43.3749C160.597 43.3044 160.677 43.2692 160.709 43.2692C160.754 43.2692 160.793 43.298 160.825 43.3557C160.863 43.4069 160.895 43.4678 160.921 43.5383C160.947 43.6087 160.959 43.6696 160.959 43.7209C160.959 43.7785 160.911 43.8458 160.815 43.9227C160.725 43.9932 160.597 44.0668 160.431 44.1437C160.271 44.2142 160.082 44.2719 159.864 44.3167C159.646 44.3616 159.412 44.384 159.162 44.384ZM157.721 41.4528H160.258C160.258 40.9466 160.152 40.5686 159.941 40.3187C159.729 40.0624 159.428 39.9343 159.037 39.9343C158.755 39.9343 158.518 39.9984 158.326 40.1265C158.134 40.2483 157.986 40.4212 157.884 40.6455C157.781 40.8697 157.727 41.1388 157.721 41.4528ZM163.778 44.384C163.394 44.384 163.064 44.2879 162.788 44.0957C162.519 43.897 162.314 43.6087 162.173 43.2307C162.032 42.8527 161.962 42.3914 161.962 41.8468C161.962 41.3406 162.032 40.8922 162.173 40.5013C162.32 40.1105 162.529 39.803 162.798 39.5787C163.067 39.3545 163.387 39.2423 163.759 39.2423C164.015 39.2423 164.268 39.284 164.518 39.3673C164.774 39.4506 164.992 39.5595 165.172 39.694V37.3106C165.172 37.2402 165.204 37.1889 165.268 37.1569C165.332 37.1184 165.434 37.0992 165.575 37.0992H165.614C165.748 37.0992 165.844 37.1184 165.902 37.1569C165.966 37.1889 165.998 37.2402 165.998 37.3106V42.8847C165.998 43.1474 166.005 43.3621 166.017 43.5286C166.037 43.6952 166.053 43.8266 166.065 43.9227C166.085 44.0124 166.094 44.0796 166.094 44.1245C166.094 44.1565 166.075 44.1854 166.037 44.211C165.998 44.2366 165.95 44.259 165.892 44.2783C165.835 44.2911 165.774 44.3039 165.71 44.3167C165.646 44.3231 165.588 44.3263 165.537 44.3263C165.479 44.3263 165.434 44.3071 165.402 44.2687C165.37 44.2238 165.341 44.1533 165.316 44.0572C165.29 43.9547 165.261 43.8234 165.229 43.6632C165.101 43.8106 164.954 43.9387 164.787 44.0476C164.627 44.1565 164.46 44.2398 164.287 44.2975C164.114 44.3551 163.945 44.384 163.778 44.384ZM164.028 43.6728C164.233 43.6728 164.438 43.6151 164.643 43.4998C164.854 43.3781 165.031 43.2147 165.172 43.0097V40.4725C164.979 40.2995 164.774 40.1682 164.557 40.0785C164.339 39.9888 164.127 39.9439 163.922 39.9439C163.57 39.9439 163.294 40.1105 163.096 40.4437C162.904 40.7704 162.807 41.2381 162.807 41.8468C162.807 42.4811 162.916 42.9456 163.134 43.2403C163.358 43.5286 163.656 43.6728 164.028 43.6728ZM168.107 44.3455C167.966 44.3455 167.867 44.3263 167.809 44.2879C167.758 44.2494 167.732 44.1982 167.732 44.1341V39.4922C167.732 39.4217 167.758 39.3705 167.809 39.3385C167.867 39.3 167.966 39.2808 168.107 39.2808H168.184C168.325 39.2808 168.421 39.3 168.472 39.3385C168.53 39.3705 168.559 39.4217 168.559 39.4922V44.1341C168.559 44.1982 168.53 44.2494 168.472 44.2879C168.421 44.3263 168.325 44.3455 168.184 44.3455H168.107ZM168.145 38.6081C167.992 38.6081 167.883 38.5888 167.819 38.5504C167.755 38.5119 167.723 38.4607 167.723 38.3966V37.82C167.723 37.7559 167.755 37.7047 167.819 37.6662C167.883 37.6278 167.992 37.6086 168.145 37.6086C168.299 37.6086 168.408 37.6278 168.472 37.6662C168.536 37.6983 168.568 37.7495 168.568 37.82V38.3966C168.568 38.4607 168.536 38.5119 168.472 38.5504C168.408 38.5888 168.299 38.6081 168.145 38.6081ZM171.525 44.384C171.057 44.384 170.666 44.2687 170.352 44.038C170.038 43.8009 169.882 43.4357 169.882 42.9424C169.882 42.6156 169.936 42.3401 170.045 42.1159C170.154 41.8917 170.33 41.7123 170.573 41.5777C170.823 41.4432 171.15 41.3471 171.554 41.2894C171.964 41.2253 172.464 41.1933 173.053 41.1933V40.7416C173.053 40.5942 173.021 40.4597 172.957 40.3379C172.893 40.2162 172.784 40.1201 172.63 40.0496C172.483 39.9727 172.278 39.9343 172.015 39.9343C171.727 39.9343 171.47 39.9663 171.246 40.0304C171.028 40.0945 170.849 40.1586 170.708 40.2226C170.573 40.2867 170.484 40.3187 170.439 40.3187C170.407 40.3187 170.375 40.3027 170.343 40.2707C170.317 40.2386 170.292 40.197 170.266 40.1457C170.24 40.0881 170.218 40.0304 170.199 39.9727C170.186 39.9151 170.179 39.8638 170.179 39.819C170.179 39.7677 170.234 39.7101 170.343 39.646C170.452 39.5819 170.596 39.5211 170.775 39.4634C170.961 39.3993 171.163 39.3481 171.381 39.3096C171.605 39.2648 171.829 39.2423 172.054 39.2423C172.342 39.2423 172.598 39.2776 172.822 39.3481C173.053 39.4121 173.245 39.5114 173.399 39.646C173.553 39.7741 173.671 39.9311 173.755 40.1169C173.838 40.3027 173.88 40.5141 173.88 40.7512V42.8847C173.88 43.1474 173.886 43.3621 173.899 43.5286C173.918 43.6952 173.934 43.8266 173.947 43.9227C173.966 44.0124 173.976 44.0796 173.976 44.1245C173.976 44.1565 173.956 44.1854 173.918 44.211C173.88 44.2366 173.831 44.259 173.774 44.2783C173.716 44.2911 173.655 44.3039 173.591 44.3167C173.527 44.3231 173.469 44.3263 173.418 44.3263C173.361 44.3263 173.316 44.3071 173.284 44.2687C173.252 44.2238 173.223 44.1533 173.197 44.0572C173.172 43.9547 173.143 43.8234 173.111 43.6632C172.995 43.7977 172.858 43.9195 172.697 44.0284C172.544 44.1373 172.367 44.2238 172.169 44.2879C171.977 44.3519 171.762 44.384 171.525 44.384ZM171.563 43.6824C171.794 43.6824 171.996 43.6504 172.169 43.5863C172.348 43.5222 172.508 43.4421 172.649 43.346C172.797 43.2435 172.931 43.1346 173.053 43.0193V41.8852C172.579 41.8852 172.191 41.9045 171.89 41.9429C171.589 41.9749 171.355 42.0294 171.189 42.1063C171.022 42.1832 170.907 42.2889 170.843 42.4234C170.779 42.5516 170.746 42.7085 170.746 42.8943C170.746 43.1506 170.814 43.346 170.948 43.4806C171.089 43.6151 171.294 43.6824 171.563 43.6824Z" fill="black"/>
</svg>
